<?xml version="1.0" standalone="no"?><svg xmlns="http://www.w3.org/2000/svg" viewBox="0 0 1440 320"><path fill="#F0EFFF" fill-opacity="1" d="M0,0L24,21.3C48,43,96,85,144,85.3C192,85,240,43,288,37.3C336,32,384,64,432,101.3C480,139,528,181,576,192C624,203,672,181,720,181.3C768,181,816,203,864,202.7C912,203,960,181,1008,176C1056,171,1104,181,1152,170.7C1200,160,1248,128,1296,128C1344,128,1392,160,1416,176L1440,192L1440,320L1416,320C1392,320,1344,320,1296,320C1248,320,1200,320,1152,320C1104,320,1056,320,1008,320C960,320,912,320,864,320C816,320,768,320,720,320C672,320,624,320,576,320C528,320,480,320,432,320C384,320,336,320,288,320C240,320,192,320,144,320C96,320,48,320,24,320L0,320Z"></path></svg>