<?xml version="1.0" standalone="no"?><svg xmlns="http://www.w3.org/2000/svg" viewBox="0 0 1440 320"><path fill="#F0EFFF" fill-opacity="1" d="M0,320L30,288C60,256,120,192,180,160C240,128,300,128,360,138.7C420,149,480,171,540,165.3C600,160,660,128,720,117.3C780,107,840,117,900,133.3C960,149,1020,171,1080,149.3C1140,128,1200,64,1260,69.3C1320,75,1380,149,1410,186.7L1440,224L1440,320L1410,320C1380,320,1320,320,1260,320C1200,320,1140,320,1080,320C1020,320,960,320,900,320C840,320,780,320,720,320C660,320,600,320,540,320C480,320,420,320,360,320C300,320,240,320,180,320C120,320,60,320,30,320L0,320Z"></path></svg>